<svg width="239" height="42" viewBox="0 0 239 42" fill="none" xmlns="http://www.w3.org/2000/svg">
<path fill-rule="evenodd" clip-rule="evenodd" d="M200.397 28.4851C199.979 28.4851 199.666 28.1101 199.666 27.6102V14.4867C199.666 13.9868 199.979 13.6118 200.397 13.6118C200.815 13.6118 201.129 13.9868 201.129 14.4867V27.6102C201.129 27.9852 200.815 28.4851 200.397 28.4851Z" fill="#EEEEEE" fill-opacity="0.15"/>
<path fill-rule="evenodd" clip-rule="evenodd" d="M158.61 29.249C158.192 29.249 157.878 28.8741 157.878 28.3742V13.6271C157.878 13.1272 158.192 12.7522 158.61 12.7522C159.028 12.7522 159.342 13.1272 159.342 13.6271V28.4992C159.342 28.8741 159.028 29.249 158.61 29.249V29.249Z" fill="#EEEEEE" fill-opacity="0.15"/>
<path fill-rule="evenodd" clip-rule="evenodd" d="M204.877 29.249C204.458 29.249 204.145 28.8741 204.145 28.3742V13.6271C204.145 13.1272 204.458 12.7522 204.877 12.7522C205.295 12.7522 205.608 13.1272 205.608 13.6271V28.4992C205.608 28.8741 205.295 29.249 204.877 29.249V29.249Z" fill="#EEEEEE" fill-opacity="0.15"/>
<path fill-rule="evenodd" clip-rule="evenodd" d="M163.238 27.6025C162.819 27.6025 162.506 27.2274 162.506 26.7273V15.3491C162.506 14.8489 162.819 14.4738 163.238 14.4738C163.656 14.4738 163.969 14.8489 163.969 15.3491V26.7273C163.969 27.2274 163.656 27.6025 163.238 27.6025Z" fill="#EEEEEE" fill-opacity="0.15"/>
<path fill-rule="evenodd" clip-rule="evenodd" d="M209.504 28.4851C209.086 28.4851 208.772 28.1101 208.772 27.6102V14.4867C208.772 13.9868 209.086 13.6118 209.504 13.6118C209.922 13.6118 210.236 13.9868 210.236 14.4867V27.6102C210.236 27.9852 209.922 28.4851 209.504 28.4851Z" fill="#EEEEEE" fill-opacity="0.15"/>
<path fill-rule="evenodd" clip-rule="evenodd" d="M167.865 32.8057C167.447 32.8057 167.133 32.4308 167.133 31.9309V10.1857C167.133 9.68585 167.447 9.31093 167.865 9.31093C168.283 9.31093 168.597 9.68585 168.597 10.1857V31.9309C168.597 32.3059 168.283 32.8057 167.865 32.8057Z" fill="#EEEEEE" fill-opacity="0.15"/>
<path fill-rule="evenodd" clip-rule="evenodd" d="M214.131 27.6025C213.713 27.6025 213.399 27.2274 213.399 26.7273V15.3491C213.399 14.8489 213.713 14.4738 214.131 14.4738C214.549 14.4738 214.863 14.8489 214.863 15.3491V26.7273C214.863 27.2274 214.549 27.6025 214.131 27.6025Z" fill="#EEEEEE" fill-opacity="0.15"/>
<path fill-rule="evenodd" clip-rule="evenodd" d="M172.492 38.4425C172.074 38.4425 171.76 38.0675 171.76 37.5675V4.31747C171.865 3.81747 172.074 3.56746 172.492 3.44247C172.91 3.44247 173.224 3.81747 173.224 4.31747V37.5675C173.224 38.0675 172.91 38.4425 172.492 38.4425Z" fill="#EEEEEE" fill-opacity="0.15"/>
<path fill-rule="evenodd" clip-rule="evenodd" d="M218.758 26.7179C218.34 26.7179 218.026 26.3429 218.026 25.843V16.2186C218.026 15.7186 218.34 15.3436 218.758 15.3436C219.176 15.3436 219.49 15.7186 219.49 16.2186V25.843C219.49 26.3429 219.176 26.7179 218.758 26.7179Z" fill="#EEEEEE" fill-opacity="0.15"/>
<path fill-rule="evenodd" clip-rule="evenodd" d="M177.115 40.9836C176.694 40.9836 176.379 40.6087 176.379 40.1087V1.73601C176.379 1.23605 176.694 0.861068 177.115 0.861068C177.535 0.861068 177.851 1.23605 177.851 1.73601V40.1087C177.851 40.6087 177.535 40.9836 177.115 40.9836Z" fill="#EEEEEE" fill-opacity="0.15"/>
<path fill-rule="evenodd" clip-rule="evenodd" d="M223.386 26.7179C222.967 26.7179 222.654 26.3429 222.654 25.843V16.2186C222.654 15.7186 222.967 15.3436 223.386 15.3436C223.804 15.3436 224.117 15.7186 224.117 16.2186V25.843C224.117 26.3429 223.804 26.7179 223.386 26.7179Z" fill="#EEEEEE" fill-opacity="0.15"/>
<path fill-rule="evenodd" clip-rule="evenodd" d="M181.742 38.4425C181.322 38.4425 181.006 38.0675 181.006 37.5675V4.31747C181.006 3.81747 181.322 3.44247 181.742 3.44247C182.163 3.44247 182.478 3.81747 182.478 4.31747V37.5675C182.478 38.0675 182.163 38.4425 181.742 38.4425Z" fill="#EEEEEE" fill-opacity="0.15"/>
<path fill-rule="evenodd" clip-rule="evenodd" d="M228.013 25.8254C227.595 25.8254 227.281 25.4507 227.281 24.9509V17.0802C227.281 16.5804 227.595 16.2056 228.013 16.2056C228.431 16.2056 228.745 16.5804 228.745 17.0802V24.9509C228.745 25.4507 228.431 25.8254 228.013 25.8254Z" fill="#EEEEEE" fill-opacity="0.15"/>
<path fill-rule="evenodd" clip-rule="evenodd" d="M186.371 33.5672C185.951 33.5672 185.635 33.1923 185.635 32.6925V9.3237C185.635 8.82383 185.951 8.44893 186.371 8.44893C186.792 8.44893 187.107 8.82383 187.107 9.3237V32.8174C187.107 33.1923 186.792 33.5672 186.371 33.5672Z" fill="#EEEEEE" fill-opacity="0.15"/>
<path fill-rule="evenodd" clip-rule="evenodd" d="M232.636 25.8254C232.216 25.8254 231.9 25.4507 231.9 24.9509V17.0802C231.9 16.5804 232.216 16.2056 232.636 16.2056C233.057 16.2056 233.372 16.5804 233.372 17.0802V24.9509C233.372 25.4507 233.057 25.8254 232.636 25.8254Z" fill="#EEEEEE" fill-opacity="0.15"/>
<path fill-rule="evenodd" clip-rule="evenodd" d="M237.266 24.3306C236.845 24.3306 236.53 23.9558 236.53 23.4561V18.4591C236.53 17.9594 236.845 17.5846 237.266 17.5846C237.686 17.5846 238.002 17.9594 238.002 18.4591V23.4561C238.002 23.9558 237.686 24.3306 237.266 24.3306Z" fill="#EEEEEE" fill-opacity="0.15"/>
<path fill-rule="evenodd" clip-rule="evenodd" d="M195.768 30.1436C195.35 30.1436 195.036 29.7686 195.036 29.2686V12.7675C195.036 12.2674 195.35 11.8924 195.768 11.8924C196.186 11.8924 196.5 12.2674 196.5 12.7675V29.2686C196.5 29.7686 196.186 30.1436 195.768 30.1436Z" fill="#EEEEEE" fill-opacity="0.15"/>
<path fill-rule="evenodd" clip-rule="evenodd" d="M190.999 31.9211C190.579 31.9211 190.263 31.5461 190.263 31.0461V11.0459C190.263 10.5459 190.579 10.1708 190.999 10.1708C191.42 10.1708 191.735 10.5459 191.735 11.0459V31.0461C191.735 31.5461 191.42 31.9211 190.999 31.9211V31.9211Z" fill="#EEEEEE" fill-opacity="0.15"/>
<path fill-rule="evenodd" clip-rule="evenodd" d="M29.3488 31.9211C28.9283 31.9211 28.6129 31.5461 28.6129 31.0461V11.0459C28.6129 10.5459 28.9283 10.1708 29.3488 10.1708C29.7694 10.1708 30.0848 10.5459 30.0848 11.0459V31.0461C30.0848 31.5461 29.7694 31.9211 29.3488 31.9211V31.9211Z" fill="#EEEEEE" fill-opacity="0.15"/>
<path fill-rule="evenodd" clip-rule="evenodd" d="M112.488 29.249C112.067 29.249 111.752 28.8741 111.752 28.3742V13.6271C111.752 13.1272 112.067 12.7522 112.488 12.7522C112.908 12.7522 113.224 13.1272 113.224 13.6271V28.4992C113.224 28.8741 112.908 29.249 112.488 29.249V29.249Z" fill="#EEEEEE" fill-opacity="0.15"/>
<path fill-rule="evenodd" clip-rule="evenodd" d="M70.9921 41.9972C70.574 41.9972 70.2603 41.6222 70.2603 41.2472V0.874026C70.2603 0.374053 70.574 -0.000932231 70.9921 -0.000932231C71.4103 -0.000932231 71.7239 0.374053 71.7239 0.874026V41.2472C71.7239 41.6222 71.4103 41.9972 70.9921 41.9972Z" fill="#EEEEEE" fill-opacity="0.15"/>
<path fill-rule="evenodd" clip-rule="evenodd" d="M154.127 28.4851C153.706 28.4851 153.391 28.1101 153.391 27.6102V14.4867C153.391 13.9868 153.706 13.6118 154.127 13.6118C154.547 13.6118 154.863 13.9868 154.863 14.4867V27.6102C154.863 27.9852 154.547 28.4851 154.127 28.4851Z" fill="#EEEEEE" fill-opacity="0.15"/>
<path fill-rule="evenodd" clip-rule="evenodd" d="M33.9763 27.6025C33.5557 27.6025 33.2403 27.2274 33.2403 26.7273V15.3491C33.2403 14.8489 33.5557 14.4738 33.9763 14.4738C34.3968 14.4738 34.7122 14.8489 34.7122 15.3491V26.7273C34.7122 27.2274 34.3968 27.6025 33.9763 27.6025Z" fill="#EEEEEE" fill-opacity="0.15"/>
<path fill-rule="evenodd" clip-rule="evenodd" d="M117.115 27.6025C116.694 27.6025 116.379 27.2274 116.379 26.7273V15.3491C116.379 14.8489 116.694 14.4738 117.115 14.4738C117.535 14.4738 117.851 14.8489 117.851 15.3491V26.7273C117.851 27.2274 117.535 27.6025 117.115 27.6025Z" fill="#EEEEEE" fill-opacity="0.15"/>
<path fill-rule="evenodd" clip-rule="evenodd" d="M75.6154 38.7249C75.1948 38.7249 74.8794 38.3499 74.8794 37.8499V3.97462C74.8794 3.47462 75.1948 3.09962 75.6154 3.09962C76.0359 3.09962 76.3513 3.47462 76.3513 3.97462V37.9749C76.3513 38.3499 76.0359 38.7249 75.6154 38.7249V38.7249Z" fill="#EEEEEE" fill-opacity="0.15"/>
<path fill-rule="evenodd" clip-rule="evenodd" d="M38.6032 29.249C38.1826 29.249 37.8672 28.8741 37.8672 28.3742V13.6271C37.8672 13.1272 38.1826 12.7522 38.6032 12.7522C39.0237 12.7522 39.3391 13.1272 39.3391 13.6271V28.4992C39.3391 28.8741 39.0237 29.249 38.6032 29.249V29.249Z" fill="#EEEEEE" fill-opacity="0.15"/>
<path fill-rule="evenodd" clip-rule="evenodd" d="M121.742 26.7179C121.321 26.7179 121.006 26.3429 121.006 25.843V16.2186C121.006 15.7186 121.321 15.3436 121.742 15.3436C122.163 15.3436 122.478 15.7186 122.478 16.2186V25.843C122.478 26.3429 122.163 26.7179 121.742 26.7179Z" fill="#EEEEEE" fill-opacity="0.15"/>
<path fill-rule="evenodd" clip-rule="evenodd" d="M80.243 33.5672C79.8225 33.5672 79.5071 33.1923 79.5071 32.6925V9.3237C79.5071 8.82383 79.8225 8.44893 80.243 8.44893C80.6636 8.44893 80.979 8.82383 80.979 9.3237V32.8174C80.979 33.1923 80.6636 33.5672 80.243 33.5672Z" fill="#EEEEEE" fill-opacity="0.15"/>
<path fill-rule="evenodd" clip-rule="evenodd" d="M43.2328 28.4851C42.8123 28.4851 42.4969 28.1101 42.4969 27.6102V14.4867C42.4969 13.9868 42.8123 13.6118 43.2328 13.6118C43.6534 13.6118 43.9688 13.9868 43.9688 14.4867V27.6102C43.9688 27.9852 43.6534 28.4851 43.2328 28.4851Z" fill="#EEEEEE" fill-opacity="0.15"/>
<path fill-rule="evenodd" clip-rule="evenodd" d="M126.37 31.0262C125.949 31.0262 125.634 30.6513 125.634 30.1514V11.9052C125.634 11.4053 125.949 11.0304 126.37 11.0304C126.79 11.0304 127.106 11.4053 127.106 11.9052V30.1514C127.106 30.6513 126.79 31.0262 126.37 31.0262Z" fill="#EEEEEE" fill-opacity="0.15"/>
<path fill-rule="evenodd" clip-rule="evenodd" d="M84.8699 28.4851C84.4494 28.4851 84.134 28.1101 84.134 27.6102V14.4867C84.134 13.9868 84.4494 13.6118 84.8699 13.6118C85.2905 13.6118 85.6059 13.9868 85.6059 14.4867V27.6102C85.6059 27.9852 85.2905 28.4851 84.8699 28.4851Z" fill="#EEEEEE" fill-opacity="0.15"/>
<path fill-rule="evenodd" clip-rule="evenodd" d="M1.73313 24.4416C1.31259 24.4416 0.997189 24.0665 0.997189 23.5664V18.4399C0.997189 17.9398 1.31259 17.5646 1.73313 17.5646C2.15366 17.5646 2.46906 17.9398 2.46906 18.4399V23.6914C2.46906 24.0665 2.15366 24.4416 1.73313 24.4416V24.4416Z" fill="#EEEEEE" fill-opacity="0.15"/>
<path fill-rule="evenodd" clip-rule="evenodd" d="M47.8556 27.6025C47.4374 27.6025 47.1238 27.2274 47.1238 26.7273V15.3491C47.1238 14.8489 47.4374 14.4738 47.8556 14.4738C48.2737 14.4738 48.5874 14.8489 48.5874 15.3491V26.7273C48.5874 27.2274 48.2737 27.6025 47.8556 27.6025Z" fill="#EEEEEE" fill-opacity="0.15"/>
<path fill-rule="evenodd" clip-rule="evenodd" d="M130.992 28.4851C130.574 28.4851 130.261 28.1101 130.261 27.6102V14.4867C130.261 13.9868 130.574 13.6118 130.992 13.6118C131.411 13.6118 131.724 13.9868 131.724 14.4867V27.6102C131.724 27.9852 131.411 28.4851 130.992 28.4851Z" fill="#EEEEEE" fill-opacity="0.15"/>
<path fill-rule="evenodd" clip-rule="evenodd" d="M89.4969 27.6025H89.3917C89.0763 27.6025 88.7609 27.1024 88.7609 26.7273V15.3491C88.7609 14.8489 89.0763 14.4738 89.4969 14.4738C89.9174 14.4738 90.2328 14.8489 90.2328 15.3491V26.7273C90.2328 27.2274 89.9174 27.6025 89.4969 27.6025H89.4969Z" fill="#EEEEEE" fill-opacity="0.15"/>
<path fill-rule="evenodd" clip-rule="evenodd" d="M6.35853 27.6025C5.938 27.6025 5.6226 27.2274 5.6226 26.7273V15.3491C5.6226 14.8489 5.938 14.4738 6.35853 14.4738C6.77906 14.4738 7.09447 14.8489 7.09447 15.3491V26.7273C7.09447 27.2274 6.77906 27.6025 6.35853 27.6025Z" fill="#EEEEEE" fill-opacity="0.15"/>
<path fill-rule="evenodd" clip-rule="evenodd" d="M52.483 31.0262C52.0648 31.0262 51.7512 30.6513 51.7512 30.1514V11.9052C51.7512 11.4053 52.0648 11.0304 52.483 11.0304C52.9012 11.0304 53.2148 11.4053 53.2148 11.9052V30.1514C53.2148 30.6513 52.9012 31.0262 52.483 31.0262Z" fill="#EEEEEE" fill-opacity="0.15"/>
<path fill-rule="evenodd" clip-rule="evenodd" d="M135.62 31.9211C135.201 31.9211 134.888 31.5461 134.888 31.0461V11.0459C134.888 10.5459 135.201 10.1708 135.62 10.1708C136.038 10.1708 136.351 10.5459 136.351 11.0459V31.0461C136.351 31.5461 136.038 31.9211 135.62 31.9211V31.9211Z" fill="#EEEEEE" fill-opacity="0.15"/>
<path fill-rule="evenodd" clip-rule="evenodd" d="M93.835 28.4851C93.4168 28.4851 93.1032 28.1101 93.1032 27.6102V14.4867C93.1032 13.9868 93.4168 13.6118 93.835 13.6118C94.2531 13.6118 94.5667 13.9868 94.5667 14.4867V27.6102C94.5667 27.9852 94.2531 28.4851 93.835 28.4851Z" fill="#EEEEEE" fill-opacity="0.15"/>
<path fill-rule="evenodd" clip-rule="evenodd" d="M10.9877 25.8254C10.5672 25.8254 10.2518 25.4507 10.2518 24.9509V17.0802C10.2518 16.5804 10.5672 16.2056 10.9877 16.2056C11.4082 16.2056 11.7236 16.5804 11.7236 17.0802V24.9509C11.7236 25.4507 11.4082 25.8254 10.9877 25.8254Z" fill="#EEEEEE" fill-opacity="0.15"/>
<path fill-rule="evenodd" clip-rule="evenodd" d="M57.1104 30.1436C56.6922 30.1436 56.3786 29.7686 56.3786 29.2686V12.7675C56.3786 12.2674 56.6922 11.8924 57.1104 11.8924C57.5286 11.8924 57.8422 12.2674 57.8422 12.7675V29.2686C57.8422 29.7686 57.5286 30.1436 57.1104 30.1436Z" fill="#EEEEEE" fill-opacity="0.15"/>
<path fill-rule="evenodd" clip-rule="evenodd" d="M140.247 27.6025C139.829 27.6025 139.515 27.2274 139.515 26.7273V15.3491C139.515 14.8489 139.829 14.4738 140.247 14.4738C140.665 14.4738 140.978 14.8489 140.978 15.3491V26.7273C140.978 27.2274 140.665 27.6025 140.247 27.6025Z" fill="#EEEEEE" fill-opacity="0.15"/>
<path fill-rule="evenodd" clip-rule="evenodd" d="M98.6054 29.249C98.1849 29.249 97.8695 28.8741 97.8695 28.3742V13.6271C97.8695 13.1272 98.1849 12.7522 98.6054 12.7522C99.026 12.7522 99.3414 13.1272 99.3414 13.6271V28.4992C99.3414 28.8741 99.026 29.249 98.6054 29.249V29.249Z" fill="#EEEEEE" fill-opacity="0.15"/>
<path fill-rule="evenodd" clip-rule="evenodd" d="M15.6146 32.8057C15.1941 32.8057 14.8787 32.4308 14.8787 31.9309V10.1857C14.8787 9.68585 15.1941 9.31093 15.6146 9.31093C16.0351 9.31093 16.3505 9.68585 16.3505 10.1857V31.9309C16.3505 32.3059 16.0351 32.8057 15.6146 32.8057Z" fill="#EEEEEE" fill-opacity="0.15"/>
<path fill-rule="evenodd" clip-rule="evenodd" d="M61.7373 34.4621C61.3192 34.4621 61.0055 34.087 61.0055 33.5869V8.4547C61.0055 7.95456 61.3192 7.57945 61.7373 7.57945C62.1555 7.57945 62.4691 7.95456 62.4691 8.4547V33.5869C62.4691 34.087 62.1555 34.4621 61.7373 34.4621Z" fill="#EEEEEE" fill-opacity="0.15"/>
<path fill-rule="evenodd" clip-rule="evenodd" d="M144.876 26.7179C144.458 26.7179 144.145 26.3429 144.145 25.843V16.2186C144.145 15.7186 144.458 15.3436 144.876 15.3436C145.295 15.3436 145.608 15.7186 145.608 16.2186V25.843C145.608 26.3429 145.295 26.7179 144.876 26.7179Z" fill="#EEEEEE" fill-opacity="0.15"/>
<path fill-rule="evenodd" clip-rule="evenodd" d="M103.233 31.0262C102.813 31.0262 102.497 30.6513 102.497 30.1514V11.9052C102.497 11.4053 102.813 11.0304 103.233 11.0304C103.654 11.0304 103.969 11.4053 103.969 11.9052V30.1514C103.969 30.6513 103.654 31.0262 103.233 31.0262Z" fill="#EEEEEE" fill-opacity="0.15"/>
<path fill-rule="evenodd" clip-rule="evenodd" d="M20.2418 35.3468C19.8212 35.3468 19.5058 34.9718 19.5058 34.4718V7.59468C19.5058 7.09465 19.8212 6.71962 20.2418 6.71962C20.6623 6.71962 20.9777 7.09465 20.9777 7.59468V34.4718C20.9777 34.9718 20.6623 35.3468 20.2418 35.3468Z" fill="#EEEEEE" fill-opacity="0.15"/>
<path fill-rule="evenodd" clip-rule="evenodd" d="M66.3647 38.7249C65.9466 38.7249 65.6329 38.3499 65.6329 37.8499V3.97462C65.6329 3.47462 65.9466 3.09962 66.3647 3.09962C66.7829 3.09962 67.0965 3.47462 67.0965 3.97462V37.9749C67.0965 38.3499 66.7829 38.7249 66.3647 38.7249V38.7249Z" fill="#EEEEEE" fill-opacity="0.15"/>
<path fill-rule="evenodd" clip-rule="evenodd" d="M149.5 30.1436C149.079 30.1436 148.764 29.7686 148.764 29.2686V12.7675C148.764 12.2674 149.079 11.8924 149.5 11.8924C149.92 11.8924 150.236 12.2674 150.236 12.7675V29.2686C150.236 29.7686 149.92 30.1436 149.5 30.1436Z" fill="#EEEEEE" fill-opacity="0.15"/>
<path fill-rule="evenodd" clip-rule="evenodd" d="M107.861 31.9211C107.44 31.9211 107.125 31.5461 107.125 31.0461V11.0459C107.125 10.5459 107.44 10.1708 107.861 10.1708C108.281 10.1708 108.597 10.5459 108.597 11.0459V31.0461C108.597 31.5461 108.281 31.9211 107.861 31.9211V31.9211Z" fill="#EEEEEE" fill-opacity="0.15"/>
<path fill-rule="evenodd" clip-rule="evenodd" d="M24.8697 31.0262C24.4491 31.0262 24.1337 30.6513 24.1337 30.1514V11.9052C24.1337 11.4053 24.4491 11.0304 24.8697 11.0304C25.2902 11.0304 25.6056 11.4053 25.6056 11.9052V30.1514C25.6056 30.6513 25.2902 31.0262 24.8697 31.0262Z" fill="#EEEEEE" fill-opacity="0.15"/>
</svg>
