<svg width="40" height="40" viewBox="0 0 40 40" fill="none" xmlns="http://www.w3.org/2000/svg">
<path d="M35.0001 31.6667V33.3334H5.00011V31.6667L8.33345 28.3334V18.3334C8.33345 13.1667 11.7168 8.61671 16.6668 7.15004V6.66671C16.6668 5.78265 17.018 4.93481 17.6431 4.30968C18.2682 3.68456 19.1161 3.33337 20.0001 3.33337C20.8842 3.33337 21.732 3.68456 22.3571 4.30968C22.9823 4.93481 23.3334 5.78265 23.3334 6.66671V7.15004C28.2834 8.61671 31.6668 13.1667 31.6668 18.3334V28.3334L35.0001 31.6667ZM23.3334 35C23.3334 35.8841 22.9823 36.7319 22.3571 37.3571C21.732 37.9822 20.8842 38.3334 20.0001 38.3334C19.1161 38.3334 18.2682 37.9822 17.6431 37.3571C17.018 36.7319 16.6668 35.8841 16.6668 35H23.3334ZM32.9168 5.31671L30.5501 7.68337C31.9597 9.07574 33.0789 10.7341 33.8428 12.5622C34.6067 14.3904 35.0001 16.352 35.0001 18.3334H38.3335C38.3335 13.45 36.4001 8.75004 32.9168 5.31671ZM1.66678 18.3334H5.00011C5.00011 14.3334 6.60011 10.5 9.45011 7.68337L7.08345 5.31671C5.36325 7.01932 3.99856 9.04682 3.06868 11.2814C2.1388 13.516 1.66227 15.9131 1.66678 18.3334Z" fill="url(#paint0_linear_6_271)"/>
<defs>
<linearGradient id="paint0_linear_6_271" x1="1.66675" y1="38.3334" x2="41.789" y2="33.3517" gradientUnits="userSpaceOnUse">
<stop stop-color="#E98FFF"/>
<stop offset="1" stop-color="#00F0FF"/>
</linearGradient>
</defs>
</svg>
