<svg width="24" height="24" viewBox="0 0 24 24" fill="none" xmlns="http://www.w3.org/2000/svg">
<path d="M14.4733 6.14399H3.32021L8.09028 1.46969C8.25297 1.30824 8.34437 1.08926 8.34437 0.860925C8.34437 0.632593 8.25297 0.413614 8.09028 0.252159C7.92759 0.090704 7.70694 1.7012e-09 7.47686 0C7.24679 -1.7012e-09 7.02613 0.0907041 6.86344 0.252159L3.05176e-05 6.9869L6.86344 13.6876C7.02499 13.8468 7.24365 13.9358 7.47131 13.935C7.69898 13.9342 7.917 13.8436 8.07741 13.6833C8.23782 13.523 8.32749 13.306 8.32669 13.0801C8.32588 12.8541 8.23467 12.6378 8.07312 12.4786L3.31163 7.84683H14.4647C16.5263 7.83549 18.5084 8.63565 19.9766 10.072C21.4448 11.5083 22.2794 13.4637 22.2975 15.5096C22.2876 16.9277 21.8814 18.3152 21.1241 19.5178C20.3667 20.7203 19.288 21.6907 18.0079 22.321C17.7963 22.4271 17.6358 22.6123 17.5618 22.8359C17.5252 22.9466 17.5109 23.0633 17.5197 23.1795C17.5285 23.2957 17.5603 23.409 17.6133 23.513C17.6662 23.617 17.7393 23.7096 17.8283 23.7855C17.9173 23.8615 18.0205 23.9193 18.1321 23.9557C18.3573 24.0291 18.6028 24.0108 18.8144 23.9046C20.7165 22.952 22.2379 21.3887 23.131 19.469C24.024 17.5493 24.2362 15.3861 23.7331 13.3315C23.2299 11.2768 22.041 9.45161 20.3597 8.15279C18.6784 6.85397 16.6038 6.15798 14.4733 6.17805V6.14399Z" fill="white"/>
</svg>
