<svg width="45" height="43" viewBox="0 0 45 43" fill="none" xmlns="http://www.w3.org/2000/svg">
<path d="M0 5.62353C0 4.13207 0.592632 2.70171 1.64752 1.64709C2.70242 0.592477 4.13316 0 5.625 0L39.375 0C40.8668 0 42.2976 0.592477 43.3525 1.64709C44.4074 2.70171 45 4.13207 45 5.62353V28.1176C45 29.6091 44.4074 31.0394 43.3525 32.0941C42.2976 33.1487 40.8668 33.7412 39.375 33.7412H12.4144C11.6685 33.7413 10.9533 34.0377 10.4259 34.565L2.40188 42.587C2.20537 42.7839 1.95483 42.9182 1.68198 42.9727C1.40912 43.0273 1.12621 42.9996 0.869061 42.8934C0.611907 42.7871 0.392068 42.607 0.237367 42.3757C0.0826666 42.1445 5.91043e-05 41.8726 0 41.5944L0 5.62353ZM14.0625 16.8706C14.0625 16.1249 13.7662 15.4097 13.2387 14.8824C12.7113 14.3551 11.9959 14.0588 11.25 14.0588C10.5041 14.0588 9.78871 14.3551 9.26126 14.8824C8.73382 15.4097 8.4375 16.1249 8.4375 16.8706C8.4375 17.6163 8.73382 18.3315 9.26126 18.8588C9.78871 19.3861 10.5041 19.6823 11.25 19.6823C11.9959 19.6823 12.7113 19.3861 13.2387 18.8588C13.7662 18.3315 14.0625 17.6163 14.0625 16.8706ZM25.3125 16.8706C25.3125 16.1249 25.0162 15.4097 24.4887 14.8824C23.9613 14.3551 23.2459 14.0588 22.5 14.0588C21.7541 14.0588 21.0387 14.3551 20.5113 14.8824C19.9838 15.4097 19.6875 16.1249 19.6875 16.8706C19.6875 17.6163 19.9838 18.3315 20.5113 18.8588C21.0387 19.3861 21.7541 19.6823 22.5 19.6823C23.2459 19.6823 23.9613 19.3861 24.4887 18.8588C25.0162 18.3315 25.3125 17.6163 25.3125 16.8706ZM33.75 19.6823C34.4959 19.6823 35.2113 19.3861 35.7387 18.8588C36.2662 18.3315 36.5625 17.6163 36.5625 16.8706C36.5625 16.1249 36.2662 15.4097 35.7387 14.8824C35.2113 14.3551 34.4959 14.0588 33.75 14.0588C33.0041 14.0588 32.2887 14.3551 31.7613 14.8824C31.2338 15.4097 30.9375 16.1249 30.9375 16.8706C30.9375 17.6163 31.2338 18.3315 31.7613 18.8588C32.2887 19.3861 33.0041 19.6823 33.75 19.6823Z" fill="white"/>
</svg>
