<svg width="51" height="51" viewBox="0 0 51 51" fill="none" xmlns="http://www.w3.org/2000/svg">
<path d="M27.39 22.35C26.13 22.035 24.87 21.405 23.925 20.46C22.98 20.145 22.665 19.2 22.665 18.57C22.665 17.94 22.98 16.995 23.61 16.68C24.555 16.05 25.5 15.42 26.445 15.735C28.335 15.735 29.91 16.68 30.855 17.94L33.69 14.16C32.745 13.215 31.8 12.585 30.855 11.955C29.91 11.325 28.65 11.01 27.39 11.01V6.60005H23.61V11.01C22.035 11.325 20.46 12.27 19.2 13.53C17.94 15.105 16.995 16.995 17.31 18.885C17.31 20.775 17.94 22.665 19.2 23.925C20.775 25.5 22.98 26.445 24.87 27.39C25.815 27.705 27.075 28.335 28.02 28.965C28.65 29.595 28.965 30.54 28.965 31.485C28.965 32.43 28.65 33.375 28.02 34.32C27.075 35.265 25.815 35.58 24.87 35.58C23.61 35.58 22.035 35.265 21.09 34.32C20.145 33.69 19.2 32.745 18.57 31.8L15.42 35.265C16.365 36.525 17.31 37.47 18.57 38.415C20.145 39.36 22.035 40.305 23.925 40.305V44.4H27.39V39.675C29.28 39.36 30.855 38.415 32.115 37.155C33.69 35.58 34.635 33.06 34.635 30.855C34.635 28.965 34.005 26.76 32.43 25.5C30.855 23.925 29.28 22.98 27.39 22.35ZM25.5 0.300049C11.64 0.300049 0.300049 11.64 0.300049 25.5C0.300049 39.36 11.64 50.7 25.5 50.7C39.36 50.7 50.7 39.36 50.7 25.5C50.7 11.64 39.36 0.300049 25.5 0.300049ZM25.5 47.235C13.53 47.235 3.76505 37.47 3.76505 25.5C3.76505 13.53 13.53 3.76505 25.5 3.76505C37.47 3.76505 47.235 13.53 47.235 25.5C47.235 37.47 37.47 47.235 25.5 47.235Z" fill="white"/>
</svg>
